{
  "accessors": [
    {
      "bufferView": 2,
      "componentType": 5126,
      "count": 727,
      "max": [
        13.350321769714355,
        13.350321769714355,
        24.939870834350586
      ],
      "min": [
        -13.350321769714355,
        -13.350321769714355,
        0.0
      ],
      "type": "VEC3"
    },
    {
      "bufferView": 2,
      "byteOffset": 8724,
      "componentType": 5126,
      "count": 727,
      "max": [
        1.0,
        1.0,
        1.0
      ],
      "min": [
        -1.0,
        -1.0,
        -1.0
      ],
      "type": "VEC3"
    },
    {
      "bufferView": 1,
      "componentType": 5126,
      "count": 727,
      "max": [
        0.9967005252838135,
        0.9967004656791687
      ],
      "min": [
        0.005600867792963982,
        0.005600867327302694
      ],
      "type": "VEC2"
    },
    {
      "bufferView": 0,
      "componentType": 5125,
      "count": 2142,
      "type": "SCALAR"
    },
    {
      "bufferView": 2,
      "byteOffset": 17448,
      "componentType": 5126,
      "count": 1073,
      "max": [
        21.752649307250977,
        24.817251205444336,
        53.761478424072266
      ],
      "min": [
        -21.75265121459961,
        -21.75265121459961,
        -4.806027412414551
      ],
      "type": "VEC3"
    },
    {
      "bufferView": 2,
      "byteOffset": 30324,
      "componentType": 5126,
      "count": 1073,
      "max": [
        1.0,
        1.0,
        1.0
      ],
      "min": [
        -1.0,
        -1.0,
        -1.0
      ],
      "type": "VEC3"
    },
    {
      "bufferView": 1,
      "byteOffset": 5816,
      "componentType": 5126,
      "count": 1073,
      "max": [
        0.9935486912727356,
        0.999500036239624
      ],
      "min": [
        0.0005000000237487257,
        0.0005000000237487257
      ],
      "type": "VEC2"
    },
    {
      "bufferView": 0,
      "byteOffset": 8568,
      "componentType": 5125,
      "count": 2814,
      "type": "SCALAR"
    }
  ],
  "asset": {
    "extras": {
      "author": "Owen Morris (https://sketchfab.com/s4006570)",
      "license": "CC-BY-4.0 (http://creativecommons.org/licenses/by/4.0/)",
      "source": "https://sketchfab.com/3d-models/spotlight-1a9afbfec8e340ba9692095b37a1ddb3",
      "title": "Spotlight"
    },
    "generator": "Sketchfab-12.67.0",
    "version": "2.0"
  },
  "bufferViews": [
    {
      "buffer": 0,
      "byteLength": 19824,
      "name": "floatBufferViews",
      "target": 34963
    },
    {
      "buffer": 0,
      "byteLength": 14400,
      "byteOffset": 19824,
      "byteStride": 8,
      "name": "floatBufferViews",
      "target": 34962
    },
    {
      "buffer": 0,
      "byteLength": 43200,
      "byteOffset": 34224,
      "byteStride": 12,
      "name": "floatBufferViews",
      "target": 34962
    }
  ],
  "buffers": [
    {
      "byteLength": 77424,
      "uri": "scene.bin"
    }
  ],
  "materials": [
    {
      "doubleSided": true,
      "name": "Scene_-_Root",
      "pbrMetallicRoughness": {
        "baseColorFactor": [
          0.2482802702197365,
          0.2482802702197365,
          0.2482802702197365,
          1.0
        ],
        "metallicFactor": 0.0,
        "roughnessFactor": 0.6
      }
    }
  ],
  "meshes": [
    {
      "name": "Cylinder001__0",
      "primitives": [
        {
          "attributes": {
            "NORMAL": 1,
            "POSITION": 0,
            "TEXCOORD_0": 2
          },
          "indices": 3,
          "material": 0,
          "mode": 4
        }
      ]
    },
    {
      "name": "Cylinder002__0",
      "primitives": [
        {
          "attributes": {
            "NORMAL": 5,
            "POSITION": 4,
            "TEXCOORD_0": 6
          },
          "indices": 7,
          "material": 0,
          "mode": 4
        }
      ]
    }
  ],
  "nodes": [
    {
      "children": [
        1
      ],
      "matrix": [
        1.0,
        0.0,
        0.0,
        0.0,
        0.0,
        2.220446049250313e-16,
        -1.0,
        0.0,
        0.0,
        1.0,
        2.220446049250313e-16,
        0.0,
        0.0,
        0.0,
        0.0,
        1.0
      ],
      "name": "Sketchfab_model"
    },
    {
      "children": [
        2
      ],
      "matrix": [
        0.02539999969303608,
        0.0,
        0.0,
        0.0,
        0.0,
        0.0,
        0.02539999969303608,
        0.0,
        0.0,
        -0.02539999969303608,
        0.0,
        0.0,
        0.0,
        0.0,
        0.0,
        1.0
      ],
      "name": "1ec979690d8f4187a59d741435930f49.fbx"
    },
    {
      "children": [
        3,
        5
      ],
      "name": "RootNode"
    },
    {
      "children": [
        4
      ],
      "matrix": [
        1.0,
        0.0,
        0.0,
        0.0,
        0.0,
        2.220446049250313e-16,
        -1.0,
        0.0,
        0.0,
        1.0,
        2.220446049250313e-16,
        0.0,
        0.6299073696136475,
        0.0,
        -0.30718761682510376,
        1.0
      ],
      "name": "Cylinder001"
    },
    {
      "mesh": 0,
      "name": "Cylinder001__0"
    },
    {
      "children": [
        6
      ],
      "matrix": [
        0.6286590099334717,
        0.0,
        0.0,
        0.0,
        0.0,
        0.6286590099334716,
        -7.496683795366498e-09,
        0.0,
        0.0,
        7.496683795366498e-09,
        0.6286590099334716,
        0.0,
        0.5267686247825623,
        23.329858779907227,
        -0.8173220157623291,
        1.0
      ],
      "name": "Cylinder002"
    },
    {
      "children": [
        7
      ],
      "matrix": [
        1.0,
        0.0,
        0.0,
        0.0,
        0.0,
        -0.9396927118713488,
        0.34201989307037417,
        0.0,
        0.0,
        -0.34201989307037417,
        -0.9396927118713488,
        0.0,
        0.5412511825561523,
        6.622842788696289,
        17.496103286743164,
        1.0
      ],
      "name": "Object_6"
    },
    {
      "mesh": 1,
      "name": "Cylinder002__0"
    }
  ],
  "scene": 0,
  "scenes": [
    {
      "name": "Sketchfab_Scene",
      "nodes": [
        0
      ]
    }
  ]
}
